# xmcd CD database file
#
# Track frame offsets:
#	150
#	38120
#	59520
#	90398
#	124453
#	147915
#	170785
#	197183
#	254280
#	284778
#	315970
#
# Disc length: 4522 seconds
#
# Revision: 0
# Processed by: cddbd v1.5.2PL0 Copyright (c) Steve Scherf et al.
# Submitted via: CDex 1.70beta1
#
DISCID=a911a80b
DTITLE=Spohr Louis - String Quartets (Complete) Vol 4
DYEAR=1900
DGENRE=String Quartets
TTITLE0=String Quartet No. 3, D minor, Op. 11: Allegro moderato
TTITLE1=String Quartet No. 3, D minor, Op. 11: Adagio
TTITLE2=String Quartet No. 3, D minor, Op. 11: Rondo
TTITLE3=String Quartet No. 4, E flat major, Op. 15, No. 1: Allegro vivace
TTITLE4=String Quartet No. 4, E flat major, Op. 15, No. 1: Andante
TTITLE5=String Quartet No. 4, E flat major, Op. 15, No. 1: Menuetto: Allegretto
TTITLE6=String Quartet No. 4, E flat major, Op. 15, No. 1: Rondo: Presto
TTITLE7=String Quartet No. 6, G minor, Op. 27: Allegro moderato
TTITLE8=String Quartet No. 6, G minor, Op. 27: Adagio
TTITLE9=String Quartet No. 6, G minor, Op. 27: Menuetto: Allegretto
TTITLE10=String Quartet No. 6, G minor, Op. 27: Finale: Vivace
EXTD=
EXTT0=
EXTT1=
EXTT2=
EXTT3=
EXTT4=
EXTT5=
EXTT6=
EXTT7=
EXTT8=
EXTT9=
EXTT10=
PLAYORDER=
